# xmcd
#
# Track frame offsets: 
#        150
#        21150
#        37650
#        62175
#        78375
#        91500
#        105675
#        120600
#        150975
#
# Disc length: 2172 seconds
#
# Revision: 0
# Processed by: cddbd v1.5.2PL0 Copyright (c) Steve Scherf et al.
# Submitted via: ExactAudioCopy v0.99pb5
#
DISCID=5a087a09
DTITLE=ВИА Песняры - ВИА Песняры
DYEAR=1971
DGENRE=Folk
TTITLE0=Ты мне весною приснилась
TTITLE1=Косил Ясь конюшину
TTITLE2=В поле верба
TTITLE3=Ой, рано на Ивана
TTITLE4=Рушники
TTITLE5=Скрипят мои лапти
TTITLE6=Пойдем вдоль улицы
TTITLE7=Александрина
TTITLE8=Беларусь
EXTD=
EXTT0=
EXTT1=
EXTT2=
EXTT3=
EXTT4=
EXTT5=
EXTT6=
EXTT7=
EXTT8=
PLAYORDER=
